PathFileType	4	(X/Y/Z)	E:\3-PhD\Data\MocapData\ElaboratedData\012\pre\dynamicElaborations\RunA1\RunA1.trc
DataRate	CameraRate	NumFrames	NumMarkers	Units	OrigDataRate	DataStartFrame
200	200	4	56	mm	200	473
Frame#	Time	FHD			LBHD			RBHD			C7			T10			CLAV			LSHO			LUUPA			LMUPA			LDUPA			LLEP			LMEP			LRAD			LUL			LRFIN			RSHO			RUPA1			RMUPA			RDUPA			RLEP			RMEP			RRAD			RUL			RUFIN			LASI			RASI			USACR			LSACR			RSACR			LTHI1			LTHI2			LTHI3			LTHI4			LLFC			LTIB1			LTIB2			LTIB3			LTIB4			LHEE			LMT1			LMT5			LMT2			RTHI			RTHI2			RTHI3			RTHI4			RLFC			RTIB1			RTIB2			RTIB3			RTIB4			RLMAL			RHEE			RMT1			RMT2			RMT5		
		X1	Y1	Z1	X2	Y2	Z2	X3	Y3	Z3	X4	Y4	Z4	X5	Y5	Z5	X6	Y6	Z6	X7	Y7	Z7	X8	Y8	Z8	X9	Y9	Z9	X10	Y10	Z10	X11	Y11	Z11	X12	Y12	Z12	X13	Y13	Z13	X14	Y14	Z14	X15	Y15	Z15	X16	Y16	Z16	X17	Y17	Z17	X18	Y18	Z18	X19	Y19	Z19	X20	Y20	Z20	X21	Y21	Z21	X22	Y22	Z22	X23	Y23	Z23	X24	Y24	Z24	X25	Y25	Z25	X26	Y26	Z26	X27	Y27	Z27	X28	Y28	Z28	X29	Y29	Z29	X30	Y30	Z30	X31	Y31	Z31	X32	Y32	Z32	X33	Y33	Z33	X34	Y34	Z34	X35	Y35	Z35	X36	Y36	Z36	X37	Y37	Z37	X38	Y38	Z38	X39	Y39	Z39	X40	Y40	Z40	X41	Y41	Z41	X42	Y42	Z42	X43	Y43	Z43	X44	Y44	Z44	X45	Y45	Z45	X46	Y46	Z46	X47	Y47	Z47	X48	Y48	Z48	X49	Y49	Z49	X50	Y50	Z50	X51	Y51	Z51	X52	Y52	Z52	X53	Y53	Z53	X54	Y54	Z54	X55	Y55	Z55	X56	Y56	Z56	

521	2.600000	-2216.405863	1780.635860	433.971018	-2370.640618	1749.480676	334.748820	-2356.120239	1742.818753	485.332352	-2405.986830	1581.976157	428.507712	-2557.594582	1266.997691	407.321769	-2287.257293	1479.334210	387.179791	-2324.817895	1600.696222	268.634984	-2479.671068	1537.731413	115.819571	-2468.355503	1497.512476	87.345284	-2529.074707	1503.669243	78.284125	-2574.719979	1444.363529	24.327404	-2607.469899	1416.092670	99.487491	-2508.870896	1172.731004	-28.143300	-2545.893890	1193.038385	-94.189257	-2512.080140	1087.490926	-54.482136	-2273.415016	1526.121670	550.974933	-2328.986555	1307.468025	653.011751	-2292.638211	1281.839422	632.356612	-2327.688336	1237.542874	648.905526	-2321.883776	1167.074758	639.632206	-2375.897954	1157.983300	569.436748	-2158.069711	1286.575062	446.096225	-2110.444708	1226.242457	453.181833	-2088.291606	1320.554476	403.650558	-2455.137621	1038.333408	261.917899	-2501.573011	1000.609167	482.816192	-2614.575968	1152.562106	369.404039	-2632.792940	1129.232312	336.413329	-2638.374804	1125.190165	392.830077	-2425.133014	846.249219	171.047372	-2342.837115	821.154496	184.155184	-2316.004143	852.901176	208.490455	-2324.832894	764.767554	188.074130	-2234.360555	648.099073	208.147652	-2223.930671	460.584667	268.043566	-2240.991963	426.603907	190.268722	-2220.918372	414.946796	230.912986	-2242.406401	337.136054	253.102872	-2360.732602	152.977379	245.449386	-2156.763569	155.930227	293.146176	-2165.191461	139.090718	191.907849	-2135.673649	158.986018	241.116995	-2725.570554	748.135638	496.092347	-2717.906238	682.263244	488.048248	-2690.080560	666.060430	479.506860	-2783.169922	630.195663	464.137923	-2853.774935	535.818217	441.686439	-2925.831291	419.833740	399.498043	-3029.133964	433.697595	426.366617	-3014.461163	392.766370	408.726159	-3038.392704	355.926913	382.450192	-3214.580819	311.092398	367.016281	-3257.591206	339.274012	308.396511	-3168.321249	133.178005	300.519827	-3175.419644	133.201880	343.487021	-3224.453880	157.174528	383.900497	
522	2.605000	-2188.837982	1783.274785	431.010248	-2342.635344	1751.312296	331.448558	-2328.334002	1745.005983	482.300895	-2376.895563	1584.257873	426.461980	-2528.449530	1269.662229	407.413806	-2258.376821	1481.727306	384.655031	-2296.725642	1601.837447	265.871354	-2451.287713	1536.645695	112.757824	-2439.969752	1495.838787	85.585223	-2500.633540	1501.576873	76.144829	-2545.810333	1441.050196	23.299731	-2578.192465	1413.505507	98.745151	-2475.478894	1170.054202	-26.511124	-2512.932762	1188.918764	-92.691924	-2475.832137	1084.735989	-52.266411	-2244.016473	1528.171902	548.515042	-2303.979399	1311.861553	653.574817	-2267.882996	1285.223262	634.288360	-2304.038111	1241.950436	650.816899	-2299.679256	1170.981758	642.449637	-2354.681124	1162.108339	573.112224	-2132.407833	1281.796837	446.636304	-2086.766051	1220.221926	454.868935	-2061.727774	1312.545732	403.338749	-2427.333522	1040.308696	261.462442	-2470.428713	1003.727593	482.544308	-2585.239901	1155.246047	370.321523	-2603.748732	1131.680689	337.389522	-2608.503760	1127.675401	393.851060	-2399.082818	845.356770	169.385180	-2316.950952	819.231357	181.991631	-2289.922752	850.248708	207.302890	-2299.730040	762.532151	185.542508	-2210.615176	643.821545	205.108666	-2192.911257	457.080294	266.775710	-2209.155449	421.247696	189.610573	-2188.311312	411.008215	230.241739	-2206.053195	332.622625	253.709462	-2316.690558	143.851994	249.092829	-2112.723716	157.379182	297.767148	-2120.065891	136.727516	197.072388	-2091.685611	159.528037	245.774851	-2692.202977	747.691874	497.780909	-2683.992778	681.865593	489.091576	-2656.103892	666.100859	480.383505	-2748.233955	629.616391	466.814878	-2819.568158	535.692897	442.326621	-2896.199831	423.479483	398.807874	-2998.764101	441.816211	425.907013	-2986.384395	400.055599	407.225339	-3011.823727	365.307369	380.587520	-3189.940229	329.859596	365.004686	-3231.129140	362.023462	307.951454	-3153.686994	150.685664	296.477855	-3159.836454	150.909849	339.749413	-3206.758681	177.362198	381.539971	
523	2.610000	-2161.250208	1785.726270	428.109264	-2314.636751	1752.960201	328.235607	-2300.512449	1746.966336	479.343152	-2347.766088	1586.434935	424.324929	-2499.421058	1272.329990	407.293542	-2229.532782	1483.918309	382.199694	-2268.561017	1602.738546	263.024336	-2422.579259	1534.740997	109.481039	-2411.123381	1493.354313	83.770300	-2471.718236	1498.478719	73.849551	-2516.363759	1436.657970	22.216190	-2548.396472	1409.852252	98.029261	-2441.050525	1166.484361	-24.260884	-2478.927670	1183.655266	-90.591493	-2438.288963	1081.175444	-49.217462	-2214.701419	1529.901957	546.156422	-2279.567265	1316.189254	654.074799	-2243.740810	1288.532481	636.292491	-2281.070051	1246.338456	652.647937	-2278.215565	1174.834419	645.189199	-2334.045940	1166.395438	576.395303	-2106.834880	1275.494000	447.254652	-2063.527539	1212.583889	457.020227	-2035.141789	1302.388713	403.075608	-2399.779800	1042.035599	260.875575	-2439.387929	1006.698796	482.226631	-2556.156574	1157.724681	371.105061	-2574.934798	1133.850557	338.241368	-2578.821479	1129.940685	394.726342	-2373.540726	844.076022	167.518415	-2291.613636	816.832749	179.594675	-2264.370500	847.099667	205.882827	-2275.216375	759.809009	182.790192	-2187.514688	638.932974	202.022083	-2163.267204	453.294429	265.465358	-2179.081541	415.722840	189.067962	-2157.387407	406.834401	229.541673	-2171.817853	328.140554	254.361680	-2275.787247	135.867815	253.121870	-2072.036659	158.386777	301.776589	-2078.688510	134.273183	201.768614	-2051.206899	159.625155	249.803542	-2658.429414	746.705136	499.462851	-2649.491770	680.939344	490.231815	-2621.475821	665.710923	481.472256	-2712.610083	628.230255	469.314579	-2784.058469	534.569784	443.005170	-2865.146450	426.575987	398.014309	-2966.752413	449.552064	425.423711	-2956.503908	407.055557	405.839445	-2983.827478	374.555227	378.422870	-3163.394959	349.015254	362.950043	-3202.657314	384.932398	307.370380	-3136.959340	169.517157	292.094054	-3142.263013	169.740231	335.592671	-3186.999524	198.386324	378.848324	
524	2.615000	-2133.638931	1787.966196	425.280369	-2286.640286	1754.425337	325.108996	-2272.664922	1748.683190	476.452444	-2318.612123	1588.490075	422.089922	-2470.499458	1274.963932	406.987192	-2200.746069	1485.889977	379.812511	-2240.336188	1603.381196	260.090520	-2393.533979	1532.017243	106.003424	-2381.807606	1490.068901	81.912334	-2442.316147	1494.385274	71.411674	-2486.392380	1431.233035	21.100480	-2518.079114	1405.160441	97.371418	-2405.571158	1162.117429	-21.384520	-2443.844520	1177.351924	-87.873812	-2399.457113	1076.930690	-45.324093	-2185.473686	1531.297197	543.895147	-2255.694431	1320.441346	654.487960	-2220.162253	1291.763179	638.325690	-2258.721525	1250.698910	654.360463	-2257.420252	1178.643190	647.819228	-2313.900598	1170.809038	579.292082	-2081.478677	1267.699393	448.019203	-2040.834533	1203.419842	459.680567	-2008.711311	1290.164316	403.035920	-2372.425591	1043.570449	260.163026	-2408.435015	1009.471050	481.861196	-2527.332122	1159.907167	371.805423	-2546.360821	1135.658329	339.030146	-2549.343448	1131.900701	395.520080	-2348.478729	842.459829	165.539712	-2266.793280	814.035188	177.021506	-2239.277140	843.580722	204.174143	-2251.234397	756.687100	179.905964	-2164.934506	633.633420	198.943694	-2134.992512	449.320884	264.150979	-2150.781826	410.118168	188.685873	-2128.157715	402.493849	228.852456	-2139.784615	323.719641	255.076826	-2238.247153	128.950188	257.523183	-2034.751221	158.705012	305.105634	-2041.231921	131.496947	205.897944	-2014.325624	159.032139	253.107040	-2624.305779	745.264262	501.112316	-2614.478610	679.573580	491.429175	-2586.280688	664.966943	482.693781	-2676.418812	626.173200	471.584264	-2747.408731	532.630806	443.685542	-2832.733654	429.223798	397.201229	-2933.161564	456.942978	424.951076	-2924.865548	413.816594	404.658287	-2954.371519	383.646893	376.094569	-3134.788144	368.356513	361.005617	-3172.004254	407.749260	306.677579	-3117.927204	189.272475	287.614144	-3122.570340	189.323488	331.256745	-3165.170865	219.894967	375.889636	
